<svg width="51" height="52" viewBox="0 0 51 52" fill="none" xmlns="http://www.w3.org/2000/svg">
<path d="M12.7498 7.79998C12.7498 10.5612 10.9393 12.9376 7.64726 12.9376C4.549 12.9376 2.5498 10.6964 2.5498 7.93518C2.5498 5.10118 4.4878 2.59998 7.64981 2.59998C10.8118 2.59998 12.6886 4.96598 12.7498 7.79998ZM2.5498 49.4V15.6H12.7498V49.4H2.5498ZM17.8498 27.1544C17.8498 23.1374 17.7198 19.7808 17.5897 16.8818H26.7544L27.2083 21.3616H27.4021C28.6924 19.253 31.8544 16.1616 37.1482 16.1616C43.6048 16.1616 48.4498 20.5686 48.4498 30.0508V49.4H38.2498V31.5614C38.2498 27.417 36.702 24.2554 33.1498 24.2554C30.4417 24.2554 29.0851 26.4914 28.3737 28.3348C28.1136 28.9952 28.0498 29.9156 28.0498 30.8386V49.4H17.8498V27.1544Z" fill="#FF7400"/>
</svg>
