<svg width="58" height="61" viewBox="0 0 58 61" fill="none" xmlns="http://www.w3.org/2000/svg">
<path d="M0.00029575 16.5996V60.0219H16.8965V0C12.4156 0.00142106 8.11872 1.75079 4.95038 4.86354C1.78195 7.97629 0.00147806 12.1976 0.00029575 16.5996Z" fill="url(#paint0_linear_262_132)"/>
<g style="mix-blend-mode:screen" opacity="0.7">
<path d="M16.2065 29.2237C16.2127 31.0504 16.2198 32.8772 16.2323 34.6709C16.2447 36.4646 16.2723 38.2374 16.2919 39.9511C16.3372 43.3767 16.4101 46.5717 16.5016 49.311C16.6652 54.7913 16.8945 58.4404 16.8945 58.4404V0C16.8945 0 16.6652 3.6535 16.5016 9.12941C16.4127 11.8695 16.3372 15.0637 16.2919 18.4902C16.2723 20.203 16.2323 21.9741 16.2323 23.7704C16.2323 25.5667 16.2145 27.3952 16.2065 29.2237Z" fill="white"/>
</g>
<g style="mix-blend-mode:screen" opacity="0.7">
<path d="M0.381054 16.1615V58.4378C0.381054 58.4378 0.439723 57.38 0.505504 55.5315C0.571285 53.683 0.683289 51.0342 0.754404 47.8653C0.843297 44.6954 0.911744 40.9932 0.957969 37.0291C0.977525 35.0467 0.997082 32.9999 1.01664 30.9147C1.03619 28.8296 1.02997 26.7193 1.0362 24.6081C1.04242 22.4969 1.02375 20.3735 1.01042 18.2954C1.01664 17.2619 0.983748 16.2076 1.01664 15.2351C1.06295 14.2674 1.2034 13.3062 1.43621 12.3645C1.87686 10.5683 2.63112 8.86001 3.66565 7.31483C5.41009 4.72634 7.87314 2.67879 10.7655 1.41268C11.7925 0.96166 12.8651 0.617613 13.9657 0.386213C14.678 0.236152 15.3982 0.124636 16.1231 0.0521776C16.628 0.0199919 16.8965 0.000854492 16.8965 0.000854492C12.5168 0.00223805 8.31698 1.70543 5.22022 4.73604C2.12336 7.76664 0.383098 11.8766 0.381943 16.1624L0.381054 16.1615Z" fill="white"/>
</g>
<path d="M17.0184 0.003479V16.6313H41.0761C41.3664 16.6275 41.6546 16.6903 41.924 16.816C42.1933 16.9417 42.4385 17.1279 42.6453 17.3637C42.8135 17.5563 42.9508 17.7819 43.0508 18.03C42.8271 13.818 41.4468 9.79844 39.1108 6.55625C36.7748 3.31406 33.605 1.01845 30.0628 0.003479H17.0184Z" fill="url(#paint1_linear_262_132)"/>
<path d="M29.623 41.9395C29.8215 46.1727 31.1874 50.2211 33.5205 53.4913C35.8536 56.7614 39.0312 59.0815 42.5876 60.1113H55.0332V43.487H31.6662C31.3689 43.4916 31.0738 43.4264 30.7988 43.2957C30.5358 43.1716 30.2971 42.9876 30.0969 42.7546C29.8956 42.5202 29.7348 42.2435 29.623 41.9395Z" fill="url(#paint2_linear_262_132)"/>
<path d="M15.0837 40.9401C15.0734 43.5045 15.5162 46.0443 16.3851 48.4037C16.5619 48.8787 16.756 49.3467 16.9666 49.8025C16.9726 49.8216 16.9786 49.8286 16.9786 49.8416C16.9806 49.8515 16.9845 49.8607 16.9899 49.8686C18.7773 53.7759 21.6725 56.8534 25.1897 58.5848C27.2346 59.6043 29.4399 60.1232 31.6667 60.1089H42.5829L42.4573 60.0697C38.9305 59.0141 35.7858 56.688 33.4785 53.428C31.1711 50.168 29.821 46.1434 29.6236 41.937V41.9301C29.4149 41.3023 29.4109 40.6081 29.6123 39.9772C29.6175 39.9641 29.6236 39.9441 29.6296 39.9311C29.7381 39.6277 29.8971 39.352 30.0975 39.1195C30.3028 38.8817 30.5478 38.6947 30.8176 38.5699C31.0873 38.445 31.3763 38.3849 31.6667 38.3931H41.0761C41.544 38.3931 42.012 38.374 42.4746 38.3209C42.4911 38.3209 42.5085 38.314 42.531 38.314C44.2594 38.1557 45.9529 37.6654 47.5419 36.863C51.4956 34.895 54.6438 31.2449 56.3352 26.668C56.5579 26.0783 56.7523 25.4748 56.9174 24.8604C57.4112 23.0207 57.6593 21.1046 57.6532 19.1783C57.6631 16.6081 57.2144 14.0631 56.3352 11.7025C54.6339 7.13955 51.4879 3.50172 47.5419 1.53449C46.3902 0.951387 45.1807 0.534758 43.9408 0.294034C43.8949 0.280116 43.861 0.274022 43.8385 0.267063C43.8271 0.263726 43.8155 0.261683 43.8039 0.260971C42.9025 0.086668 41.9901 -0.000623821 41.0761 3.35554e-06H30.0629C33.6052 1.01498 36.7749 3.31059 39.1109 6.55277C41.4468 9.79496 42.8271 13.8145 43.0508 18.0266C43.0749 18.0755 43.0958 18.1263 43.1133 18.1788C43.226 18.4945 43.2822 18.8333 43.2788 19.1748C43.282 19.5324 43.224 19.8872 43.108 20.2187C43.0959 20.2556 43.0806 20.2908 43.0621 20.3239C42.9638 20.5882 42.8223 20.828 42.6454 21.0303C42.4394 21.2674 42.1944 21.4543 41.9248 21.5801C41.6553 21.706 41.3667 21.768 41.0761 21.7627H31.6667C29.4447 21.7491 27.2434 22.2587 25.1972 23.2607C21.2187 25.1947 18.0538 28.8543 16.3813 33.4548C16.1603 34.0511 15.9677 34.6609 15.8043 35.2816C15.3211 37.1155 15.0782 39.0229 15.0837 40.9401Z" fill="url(#paint3_linear_262_132)"/>
<g style="mix-blend-mode:multiply" opacity="0.16">
<path d="M29.6236 41.9395C29.822 46.1727 31.1879 50.2211 33.521 53.4913C35.8541 56.7614 39.0318 59.0815 42.5881 60.1113H46.0576C43.1462 58.527 40.576 56.2136 38.5333 53.3388C36.4905 50.4639 35.0264 47.0997 34.247 43.4896H31.6682C31.3709 43.4942 31.0758 43.429 30.8009 43.2983C30.5378 43.1742 30.2991 42.9902 30.0989 42.7572C29.8969 42.5222 29.7355 42.2446 29.6236 41.9395Z" fill="black"/>
</g>
<g style="mix-blend-mode:multiply" opacity="0.16">
<path d="M26.9356 0.003479C30.1486 2.76796 36.6707 9.14855 38.3144 16.6313H41.0761C41.3664 16.6275 41.6546 16.6903 41.924 16.816C42.1933 16.9417 42.4385 17.1279 42.6453 17.3637C42.8135 17.5563 42.9508 17.7819 43.0508 18.03C42.8271 13.818 41.4468 9.79844 39.1108 6.55625C36.7748 3.31406 33.605 1.01845 30.0628 0.003479H26.9356Z" fill="black"/>
</g>
<g style="mix-blend-mode:multiply" opacity="0.25">
<path d="M17.0187 4.97821V16.6346H37.1104C35.4388 16.4433 33.7612 16.3119 32.0889 16.2188C30.4166 16.1258 28.7391 16.0449 27.0675 16.0144C25.39 15.9553 23.7177 15.9622 22.0401 15.9422C20.5356 15.9622 19.0446 15.9622 17.543 16.0014C17.5265 15.2428 17.5144 14.4834 17.4866 13.7188C17.458 12.748 17.4294 11.7781 17.3775 10.8082C17.2948 8.86485 17.1842 6.91805 17.0187 4.97821Z" fill="black"/>
</g>
<g style="mix-blend-mode:screen" opacity="0.7">
<path d="M15.0846 40.9403C15.0743 43.5046 15.5172 46.0444 16.386 48.4039C16.5628 48.8788 16.7569 49.3468 16.9675 49.8026C16.9104 49.6243 16.7223 49.0562 16.441 48.1854C16.0052 46.7047 15.7199 45.1704 15.5909 43.6134C15.5096 42.5822 15.4923 41.5455 15.539 40.5113C15.5962 39.3678 15.7336 38.2315 15.9497 37.1137C16.0617 36.5355 16.2007 35.9649 16.3665 35.4043C16.5606 34.8241 16.7546 34.236 16.9487 33.6488C17.3842 32.4942 17.9196 31.3935 18.5466 30.3634C19.1573 29.3195 19.8636 28.3547 20.6529 27.4857C21.4133 26.6424 22.2384 25.8807 23.1181 25.2101C23.9525 24.5835 24.8283 24.0341 25.7375 23.567C26.5564 23.1595 27.4015 22.8262 28.2651 22.57C29.5797 22.1931 30.9238 21.9699 32.277 21.9038C33.27 21.8168 33.835 21.7655 33.835 21.7655H31.6722C29.4501 21.7517 27.2489 22.2614 25.2027 23.2634C21.2241 25.1974 18.0593 28.857 16.3868 33.4575C16.1658 34.0538 15.9732 34.6636 15.8098 35.2843C15.3253 37.1171 15.0808 39.0236 15.0846 40.9403Z" fill="white"/>
</g>
<g style="mix-blend-mode:multiply" opacity="0.25">
<path d="M44.3856 60.1087H55.0332V47.5389C54.9023 48.588 54.8226 49.6267 54.7368 50.6801C54.6684 51.7292 54.6052 52.7782 54.5653 53.8204C54.5081 54.8694 54.4968 55.9194 54.463 56.9685L54.4397 59.4224C53.7498 59.4354 53.0593 59.4354 52.3687 59.4555C51.484 59.4955 50.5993 59.5085 49.7094 59.5746C47.9348 59.6738 46.1602 59.8252 44.3856 60.1087Z" fill="black"/>
</g>
<g style="mix-blend-mode:screen" opacity="0.7">
<path d="M42.531 38.3139C44.2594 38.1557 45.9529 37.6652 47.5419 36.8629C51.4956 34.8949 54.6438 31.2449 56.3352 26.6679C56.5579 26.0782 56.7523 25.4748 56.9174 24.8603C57.4112 23.0206 57.6593 21.1045 57.6532 19.1782C57.6631 16.608 57.2144 14.0631 56.3352 11.7025C54.6339 7.13946 51.4879 3.50162 47.5419 1.53439C46.3902 0.951294 45.1807 0.534669 43.9408 0.293945C44.5628 0.4669 45.1762 0.678291 45.7786 0.927216C49.8648 2.61483 53.2457 6.03149 55.2391 10.4881C56.5574 13.4146 57.178 16.6942 57.037 19.9898C56.9928 21.6458 56.7449 23.2861 56.3006 24.8612C56.1697 25.2631 56.0441 25.6658 55.9184 26.0616L55.8274 26.3582L55.8041 26.4313C55.7988 26.4437 55.795 26.4569 55.7928 26.4704L55.7356 26.6157L55.519 27.1768C55.2308 27.9031 54.9011 28.6064 54.532 29.2819C53.8323 30.5681 53.0069 31.757 52.0721 32.8249C51.2236 33.7808 50.2947 34.6364 49.2992 35.3789C48.4494 36.0024 47.5581 36.5472 46.6339 37.0082C45.9127 37.3628 45.1687 37.6519 44.4087 37.8729C43.7896 38.0563 43.1629 38.2035 42.531 38.3139Z" fill="white"/>
</g>
<g style="mix-blend-mode:screen" opacity="0.7">
<path d="M30.0639 0.00335693C33.6061 1.01833 36.7758 3.31394 39.1118 6.55613C41.4478 9.79832 42.8281 13.8179 43.0518 18.0299C43.0759 18.0788 43.0968 18.1297 43.1143 18.1822L43.0684 18.0169C43.0857 17.4949 43.0857 16.9678 43.0857 16.4398C43.0518 15.9126 43.0007 15.3846 42.9548 14.8496C42.8795 14.3277 42.778 13.8058 42.6922 13.2838C42.5779 12.7619 42.4237 12.2609 42.2928 11.7398C42.1423 11.2318 41.9558 10.7429 41.7737 10.2419C41.5796 9.75386 41.3509 9.285 41.1456 8.80308C40.9063 8.33509 40.6438 7.89318 40.3933 7.43127C40.1195 6.99633 39.8344 6.56661 39.5485 6.14385C39.2408 5.735 38.9151 5.34616 38.6014 4.9495C38.2591 4.58067 37.9243 4.21097 37.5685 3.85432L36.4559 2.87136C36.0677 2.57473 35.6743 2.29723 35.2748 2.01365C34.8581 1.77617 34.4526 1.51869 34.0366 1.2873L32.7465 0.707083C32.2951 0.554853 31.8565 0.403494 31.4112 0.272142C30.9658 0.167756 30.5145 0.0825162 30.0639 0.00335693Z" fill="white"/>
</g>
<g style="mix-blend-mode:screen" opacity="0.7">
<path d="M29.5206 41.93C29.5154 42.4711 29.5154 42.9991 29.5267 43.5332C29.5552 44.0682 29.6124 44.5962 29.6636 45.1303C29.7433 45.6581 29.8346 46.1861 29.9374 46.7144C30.0517 47.2363 30.1999 47.7504 30.3316 48.2645C30.482 48.7795 30.6791 49.2675 30.8582 49.7694C31.0515 50.2643 31.2742 50.7393 31.4916 51.2212C31.7255 51.6892 31.9873 52.1381 32.2386 52.6C32.5124 53.0419 32.7983 53.4699 33.0834 53.8996C33.3911 54.3093 33.7168 54.7051 34.0305 55.107C34.3728 55.4836 34.7075 55.8533 35.0634 56.2161L36.1767 57.206C36.5649 57.5029 36.9586 57.7928 37.3578 58.0759L38.596 58.8214L39.8914 59.4216L41.2215 59.8704C41.5637 59.9496 41.8985 60.0288 42.237 60.0949L42.1618 60.1079L42.556 60.161C42.5613 60.1679 42.5733 60.168 42.5786 60.168L42.5846 60.1079L42.5898 60.0488L42.4589 60.0688C38.9322 59.0132 35.7874 56.687 33.4801 53.427C31.1728 50.167 29.8227 46.1425 29.6252 41.9361V41.9291C29.5145 41.6151 29.4602 41.2783 29.4657 40.9392C29.4243 41.2703 29.4431 41.6077 29.5206 41.93Z" fill="white"/>
</g>
<defs>
<linearGradient id="paint0_linear_262_132" x1="8.44839" y1="1.9207" x2="8.44839" y2="60.1419" gradientUnits="userSpaceOnUse">
<stop stop-color="#FF7400"/>
<stop offset="1" stop-color="#FF7400"/>
</linearGradient>
<linearGradient id="paint1_linear_262_132" x1="17.0184" y1="9.01676" x2="41.9835" y2="9.01676" gradientUnits="userSpaceOnUse">
<stop stop-color="#FF7400"/>
<stop offset="0.322" stop-color="#FF7400"/>
<stop offset="1" stop-color="#FF7400"/>
</linearGradient>
<linearGradient id="paint2_linear_262_132" x1="56.0242" y1="51.0254" x2="32.037" y2="51.0254" gradientUnits="userSpaceOnUse">
<stop/>
<stop offset="0.322"/>
<stop offset="0.693527"/>
<stop offset="1"/>
</linearGradient>
<linearGradient id="paint3_linear_262_132" x1="36.3684" y1="-0.480873" x2="36.3684" y2="61.7321" gradientUnits="userSpaceOnUse">
<stop/>
<stop offset="0.162"/>
<stop offset="0.307"/>
<stop offset="0.446"/>
<stop offset="0.581"/>
<stop offset="0.712"/>
<stop offset="0.842"/>
<stop offset="0.967"/>
<stop offset="1"/>
</linearGradient>
</defs>
</svg>
